HIERARCHY
ROOT SpineBase
{
  OFFSET 0.000000 0.000000 0.000000
  CHANNELS 6 Xposition Yposition Zposition Zrotation Xrotation Yrotation
  JOINT SpineMid
  {
    OFFSET -0.000000 27.863216 0.000000
    CHANNELS 3 Zrotation Xrotation Yrotation
    JOINT SpineShoulder
    {
      OFFSET -0.098968 20.668698 -0.696566
      CHANNELS 3 Zrotation Xrotation Yrotation
      JOINT Neck
      {
        OFFSET -0.055813 6.835912 -0.522874
        CHANNELS 3 Zrotation Xrotation Yrotation
        JOINT Head
        {
          OFFSET -2.855756 13.056117 -0.260415
          CHANNELS 3 Zrotation Xrotation Yrotation
          End Site
          {
            OFFSET 0 0 0
          }
        }
      }
      JOINT ShoulderLeft
      {
        OFFSET -13.660524 -4.639701 5.469037
        CHANNELS 3 Zrotation Xrotation Yrotation
        JOINT ElbowLeft
        {
          OFFSET 0.746224 -25.257298 0.470107
          CHANNELS 3 Zrotation Xrotation Yrotation
          JOINT WristLeft
          {
            OFFSET 0.486734 -22.043840 5.245913
            CHANNELS 3 Zrotation Xrotation Yrotation
            JOINT HandLeft
            {
              OFFSET 1.550771 -4.659819 -2.006003
              CHANNELS 3 Zrotation Xrotation Yrotation
              JOINT HandTipLeft
              {
                OFFSET 2.340518 -6.701922 1.146985
                CHANNELS 3 Zrotation Xrotation Yrotation
                End Site
                {
                  OFFSET 0 0 0
                }
              }
              JOINT ThumbLeft
              {
                OFFSET -1.178367 1.945711 0.582560
                CHANNELS 3 Zrotation Xrotation Yrotation
                End Site
                {
                  OFFSET 0 0 0
                }
              }
            }
          }
        }
      }
      JOINT ShoulderRight
      {
        OFFSET 10.021390 -4.125206 -11.497617
        CHANNELS 3 Zrotation Xrotation Yrotation
        JOINT ElbowRight
        {
          OFFSET 5.316624 -23.498071 -3.378203
          CHANNELS 3 Zrotation Xrotation Yrotation
          JOINT WristRight
          {
            OFFSET 0.777452 -19.847437 -1.494180
            CHANNELS 3 Zrotation Xrotation Yrotation
            JOINT HandRight
            {
              OFFSET -0.904270 -5.387487 0.882775
              CHANNELS 3 Zrotation Xrotation Yrotation
              JOINT HandTipRight
              {
                OFFSET 0.414744 -7.281520 0.690504
                CHANNELS 3 Zrotation Xrotation Yrotation
                End Site
                {
                  OFFSET 0 0 0
                }
              }
              JOINT ThumbRight
              {
                OFFSET 2.129610 -1.367073 -2.424867
                CHANNELS 3 Zrotation Xrotation Yrotation
                End Site
                {
                  OFFSET 0 0 0
                }
              }
            }
          }
        }
      }
    }
  }
  JOINT HipLeft
  {
    OFFSET -5.513517 -0.014894 0.128729
    CHANNELS 3 Zrotation Xrotation Yrotation
    JOINT KneeLeft
    {
      OFFSET 13.298555 -39.299903 13.237603
      CHANNELS 3 Zrotation Xrotation Yrotation
      JOINT AnkleLeft
      {
        OFFSET 4.715094 -24.334274 5.724285
        CHANNELS 3 Zrotation Xrotation Yrotation
        JOINT FootLeft
        {
          OFFSET -3.407773 -6.641772 -1.681553
          CHANNELS 3 Zrotation Xrotation Yrotation
          End Site
          {
            OFFSET 0 0 0
          }
        }
      }
    }
  }
  JOINT HipRight
  {
    OFFSET 5.100254 1.091580 -6.626291
    CHANNELS 3 Zrotation Xrotation Yrotation
    JOINT KneeRight
    {
      OFFSET 8.886090 -32.060626 6.910500
      CHANNELS 3 Zrotation Xrotation Yrotation
      JOINT AnkleRight
      {
        OFFSET 4.342902 -29.693424 8.729535
        CHANNELS 3 Zrotation Xrotation Yrotation
        JOINT FootRight
        {
          OFFSET -4.609283 -3.271723 -11.433517
          CHANNELS 3 Zrotation Xrotation Yrotation
          End Site
          {
            OFFSET 0 0 0
          }
        }
      }
    }
  }
}
MOTION
Frames: 15
Frame Time: 0.033333
21.811435 79.119544 352.046493 2.243733 1.543773 34.410415 -0.385410 -0.054331 -34.367466 0.039654 -0.114543 0.092666 -1.122538 11.152037 2.462571 0.000000 0.000000 0.000000 -136.479759 -12.589927 -39.647179 -59.991277 4.724048 -52.786380 -24.578656 -28.298346 -34.380988 -1.924001 -14.254927 57.916821 0.000000 0.000000 0.000000 0.000000 0.000000 0.000000 140.479823 46.329265 -84.073707 57.963837 52.262658 105.060050 18.778683 -19.949877 -77.786383 2.058616 -11.498155 -39.303990 0.000000 0.000000 0.000000 0.000000 0.000000 0.000000 -10.412340 13.144703 -36.096207 19.034056 -16.559285 3.160119 -23.771637 50.930667 -4.323105 0.000000 0.000000 0.000000 -7.632914 -0.077223 -36.102477 6.015696 4.724583 2.296461 6.910622 -24.620956 9.156942 0.000000 0.000000 0.000000
21.910277 78.967569 351.972817 2.195720 1.366170 33.538219 -0.340715 -0.041374 -33.492676 -0.021436 -0.172943 0.086336 -1.526731 11.506199 2.543113 0.000000 0.000000 0.000000 -132.685321 -14.428434 -39.864945 -72.632280 3.741991 -44.214922 -26.266637 -34.704926 -34.105276 -7.167970 -6.248812 51.776582 0.000000 0.000000 0.000000 0.000000 0.000000 0.000000 132.955114 46.855361 -76.717682 73.489148 53.682351 64.764732 29.763498 -13.249021 -56.118197 1.856593 -14.103282 -38.964197 0.000000 0.000000 0.000000 0.000000 0.000000 0.000000 -10.128219 12.805933 -35.109485 18.427974 -16.942902 2.881847 -23.767205 51.323439 -4.112566 0.000000 0.000000 0.000000 -6.724311 0.031494 -34.947481 5.984317 4.760741 2.275467 2.663684 -19.738045 13.423013 0.000000 0.000000 0.000000
22.021961 78.608048 351.903022 2.135526 1.232680 33.145094 -0.262351 0.006047 -33.098161 -0.037159 -0.188909 0.083953 -2.288828 11.578506 2.611811 0.000000 0.000000 0.000000 -129.369208 -16.481757 -41.008875 -83.491507 1.214823 -38.132088 -28.979938 -31.948746 -38.451988 -6.676014 -6.412562 49.676982 0.000000 0.000000 0.000000 0.000000 0.000000 0.000000 125.933974 47.852605 -70.794700 88.739135 53.637883 31.724487 35.589341 -5.168968 -42.917291 0.757159 -14.409375 -35.453232 0.000000 0.000000 0.000000 0.000000 0.000000 0.000000 -9.571067 12.649809 -34.525999 17.987796 -17.711112 2.622086 -24.022881 51.922266 -3.854660 0.000000 0.000000 0.000000 -6.098788 -0.093611 -34.401682 4.864828 3.746964 1.886216 8.520072 -27.261474 18.703875 0.000000 0.000000 0.000000
22.138245 78.131340 351.788072 2.008159 1.269950 33.191852 -0.266256 0.102841 -33.151835 -0.090433 -0.100072 0.070879 -2.396690 11.015483 2.569768 0.000000 0.000000 0.000000 -128.054837 -16.623408 -40.707740 -87.310087 1.224762 -37.619976 -29.276586 -30.196262 -39.432850 -7.821453 -6.474016 47.263127 0.000000 0.000000 0.000000 0.000000 0.000000 0.000000 121.908434 49.471600 -68.078603 98.609896 53.769084 13.913863 38.016854 -1.235191 -37.811071 -3.455336 -12.075207 -28.523621 0.000000 0.000000 0.000000 0.000000 0.000000 0.000000 -9.468015 12.400234 -34.612394 18.302947 -17.800666 2.742040 -24.388414 52.256966 -3.842931 0.000000 0.000000 0.000000 -6.226131 -1.059467 -34.652836 5.043596 5.953575 2.305069 7.891333 -28.803119 23.978245 0.000000 0.000000 0.000000
22.261367 77.693951 351.688536 1.896229 1.314448 33.390860 -0.281503 0.224696 -33.358436 -0.132747 -0.038008 0.058842 -2.557876 10.528427 2.543468 0.000000 0.000000 0.000000 -126.586130 -16.787285 -40.310802 -87.409058 1.691757 -40.042647 -23.878424 -23.557468 -39.834299 -6.258676 -13.932155 49.786718 0.000000 0.000000 0.000000 0.000000 0.000000 0.000000 120.713086 50.674017 -67.633956 100.881555 54.688163 13.375622 34.835410 -1.744732 -38.489694 -3.053551 -7.842956 -23.407319 0.000000 0.000000 0.000000 0.000000 0.000000 0.000000 -9.592801 11.871900 -34.996128 18.631069 -17.202732 2.954666 -24.582250 52.367662 -4.044415 0.000000 0.000000 0.000000 -6.467403 -1.978957 -35.086138 3.784402 5.477809 2.059025 12.477557 -31.605343 23.277394 0.000000 0.000000 0.000000
22.386078 77.383966 351.618813 1.949454 1.461325 33.965952 -0.240942 0.334069 -33.937096 -0.146525 0.043915 0.058924 -4.095627 9.428840 2.432239 0.000000 0.000000 0.000000 -126.903558 -15.942047 -39.583894 -81.617867 3.269609 -46.972919 -22.469868 -17.244566 -40.767158 0.526631 -19.841397 55.465000 0.000000 0.000000 0.000000 0.000000 0.000000 0.000000 126.129589 52.311099 -73.860478 93.523912 57.434127 25.796750 29.143965 0.089203 -37.962569 0.993713 -4.381348 -20.842612 0.000000 0.000000 0.000000 0.000000 0.000000 0.000000 -9.937975 11.440393 -35.796227 18.904172 -16.354610 3.168647 -24.617975 52.229519 -4.308072 0.000000 0.000000 0.000000 -5.924700 -1.408131 -35.345344 3.547950 3.485879 1.648314 9.552892 -26.711898 20.271080 0.000000 0.000000 0.000000
22.536141 77.410151 351.600077 1.902828 1.502129 34.642740 -0.272205 0.362228 -34.617307 -0.162626 0.063527 0.053668 -3.979979 8.858107 2.312070 0.000000 0.000000 0.000000 -129.052347 -14.338948 -38.463268 -69.308550 4.611538 -64.301887 -23.467333 -22.603436 -32.275416 6.522572 -18.177889 61.643992 0.000000 0.000000 0.000000 0.000000 0.000000 0.000000 135.341487 53.839636 -84.391887 78.708771 60.447714 54.226221 24.640960 -0.903810 -42.567962 5.299202 -4.920607 -23.718101 0.000000 0.000000 0.000000 0.000000 0.000000 0.000000 -10.261247 11.277654 -36.707962 19.253897 -15.347022 3.421301 -24.329782 51.887116 -4.784431 0.000000 0.000000 0.000000 -5.453375 -0.597175 -35.755603 3.851263 1.555627 1.361811 4.643231 -18.316222 15.424868 0.000000 0.000000 0.000000
22.666070 77.748819 351.685088 1.845839 1.415089 35.421509 -0.354778 0.370878 -35.398470 -0.194798 0.045231 0.045016 -3.475199 8.487208 2.193348 0.000000 0.000000 0.000000 -131.063337 -12.233625 -35.631187 -57.298900 3.544709 -94.013479 -18.561680 -32.599717 -11.706174 10.491876 -15.278253 67.088128 0.000000 0.000000 0.000000 0.000000 0.000000 0.000000 143.247773 55.000450 -94.074478 62.779282 62.003459 92.260883 20.177701 -7.996442 -58.303403 6.561657 -2.643982 -20.501040 0.000000 0.000000 0.000000 0.000000 0.000000 0.000000 -9.926742 10.604742 -37.572404 18.026338 -14.105268 3.156860 -23.470814 51.300930 -5.211634 0.000000 0.000000 0.000000 -4.289603 1.249441 -35.955653 4.276441 -1.593409 0.859435 -0.071766 -8.176278 10.842695 0.000000 0.000000 0.000000
22.780111 78.328845 351.826880 1.601514 1.158451 35.759159 -0.392327 0.316669 -35.737048 -0.230104 -0.039062 0.031016 -2.667577 8.699170 2.167682 0.000000 0.000000 0.000000 -131.776505 -11.371843 -33.698471 -52.937209 0.161437 -125.137073 -10.943831 -38.984641 11.220764 13.528387 -12.664192 68.367364 0.000000 0.000000 0.000000 0.000000 0.000000 0.000000 150.273059 55.816436 -103.031528 50.793068 62.920443 119.418756 14.995771 -8.335730 -66.919711 11.642560 -1.610240 -20.051843 0.000000 0.000000 0.000000 0.000000 0.000000 0.000000 -9.221910 10.278839 -37.838110 16.718754 -13.640020 2.768650 -22.794827 50.857969 -5.226699 0.000000 0.000000 0.000000 -2.336078 3.995296 -35.485021 5.063924 -5.774279 0.297591 -1.422464 -5.303965 10.090022 0.000000 0.000000 0.000000
22.981056 79.009774 351.958113 1.465917 0.934729 35.426527 -0.513381 0.270011 -35.406833 -0.243992 -0.061273 0.020396 -1.999774 9.006896 2.167695 0.000000 0.000000 0.000000 -128.305432 -11.859234 -31.608412 -55.938050 -0.325585 -133.485666 -11.720348 -38.211093 13.108727 18.275501 -11.955368 74.466991 0.000000 0.000000 0.000000 0.000000 0.000000 0.000000 152.296292 57.869987 -107.252131 50.106489 64.209528 123.281150 14.395659 -6.122589 -65.930512 11.923074 -2.355863 -21.706231 0.000000 0.000000 0.000000 0.000000 0.000000 0.000000 -9.139369 10.069402 -37.560470 15.968694 -13.159310 2.575235 -22.352735 50.474121 -5.068301 0.000000 0.000000 0.000000 -0.407292 7.644614 -34.292851 6.152004 -10.718081 -0.243266 -1.533213 -5.428047 10.672949 0.000000 0.000000 0.000000
23.226406 79.510666 351.964738 1.314842 0.821585 35.377056 -0.594080 0.225747 -35.361134 -0.700024 -0.661338 -0.030794 -0.943464 9.274811 2.097766 0.000000 0.000000 0.000000 -122.343530 -13.808354 -30.363151 -61.607888 -0.009539 -128.905939 -7.724066 -39.708019 15.147801 12.450331 -11.252056 67.224500 0.000000 0.000000 0.000000 0.000000 0.000000 0.000000 152.441846 60.096416 -109.042170 57.701446 66.090499 107.313640 15.830153 -4.530850 -60.150677 10.370259 -1.695317 -23.255632 0.000000 0.000000 0.000000 0.000000 0.000000 0.000000 -9.232226 9.916119 -37.639590 15.696343 -12.525419 2.578772 -23.900862 52.985717 -4.753835 0.000000 0.000000 0.000000 1.826490 10.680444 -33.439990 5.589409 -15.899957 -1.365251 -2.301924 -1.313429 9.967491 0.000000 0.000000 0.000000
23.550374 79.583242 351.964534 1.141531 0.751027 35.104910 -1.365754 0.042147 -35.111889 -0.000000 0.000000 0.000000 -0.466824 8.872808 1.976162 0.000000 0.000000 0.000000 -116.269291 -16.072696 -30.595845 -70.209861 1.938684 -109.755096 -4.322406 -41.256526 10.597982 2.959621 -8.756958 59.263371 0.000000 0.000000 0.000000 0.000000 0.000000 0.000000 147.412017 63.324333 -105.780631 72.325063 67.589061 77.871525 20.454808 -10.471771 -60.543325 5.391978 2.468981 -20.322139 0.000000 0.000000 0.000000 0.000000 0.000000 0.000000 -9.595926 9.930648 -37.558953 16.116708 -12.008176 2.799511 -21.680332 48.848650 -5.015634 0.000000 0.000000 0.000000 3.441910 12.219320 -32.681417 4.167912 -19.265320 -2.586611 -2.752230 2.912411 9.246903 0.000000 0.000000 0.000000
23.905232 79.310829 351.927379 1.027955 0.784209 35.189325 -1.292000 -0.048415 -35.196906 -0.000000 0.000000 0.000000 -0.135739 8.235161 1.814367 0.000000 0.000000 0.000000 -112.330458 -18.143651 -31.527294 -78.877067 3.315564 -89.608054 -11.858758 -44.991758 -4.154461 0.077831 -7.179858 54.998794 0.000000 0.000000 0.000000 0.000000 0.000000 0.000000 140.444015 66.397001 -100.484565 93.902209 67.716740 28.661496 25.610718 -4.941227 -45.903963 1.115752 4.895242 -17.769532 0.000000 0.000000 0.000000 0.000000 0.000000 0.000000 -10.069970 10.359375 -37.808205 17.167814 -11.918825 3.159440 -20.194494 45.325434 -5.010731 0.000000 0.000000 0.000000 3.516898 12.297759 -32.751554 3.874256 -19.721775 -2.844613 -1.459008 0.802308 10.554086 0.000000 0.000000 0.000000
24.240862 78.722668 351.799890 0.901172 0.933877 35.889883 -1.277540 -0.228178 -35.899772 -0.000000 0.000000 0.000000 0.558587 7.699076 1.660449 0.000000 0.000000 0.000000 -107.656895 -19.657524 -31.057771 -88.332220 4.338732 -78.320964 -16.034883 -45.895058 -12.089755 -2.650722 -6.400714 52.224512 0.000000 0.000000 0.000000 0.000000 0.000000 0.000000 133.298721 68.915756 -94.880852 111.038530 66.809537 -4.227956 31.799483 -3.847573 -42.052671 -6.022417 6.849004 -11.000597 0.000000 0.000000 0.000000 0.000000 0.000000 0.000000 -10.335445 10.357937 -38.699713 17.829046 -11.587718 3.426509 -19.264683 42.504836 -4.839234 0.000000 0.000000 0.000000 2.372748 10.102457 -33.913269 3.617747 -17.301567 -2.482695 -1.082754 0.754318 10.817281 0.000000 0.000000 0.000000
24.517514 77.998707 351.734145 0.899760 1.092465 36.509340 -0.474471 0.119054 -36.500847 0.083191 0.070518 0.029499 0.075126 5.811894 1.419756 0.000000 0.000000 0.000000 -104.692318 -20.494878 -31.473681 -94.705491 4.408571 -73.161926 -17.774306 -41.014087 -17.937254 -3.186406 -8.662995 52.538391 0.000000 0.000000 0.000000 0.000000 0.000000 0.000000 126.374220 70.903353 -89.340748 119.328531 65.961820 -18.872479 32.730949 -3.033144 -40.429056 -8.193274 9.279276 -7.460391 0.000000 0.000000 0.000000 0.000000 0.000000 0.000000 -10.609018 10.439770 -39.449523 18.447742 -11.427089 3.651034 -18.863527 40.738969 -4.660497 0.000000 0.000000 0.000000 1.159151 7.899505 -35.019228 3.133668 -15.133824 -2.195699 -0.663541 0.992609 11.076787 0.000000 0.000000 0.000000
